<svg xmlns="http://www.w3.org/2000/svg" width="720" height="340" viewBox="0 0 720 340" role="img" aria-labelledby="title desc">
  <title id="title">Mitch's Auto Services primary logo</title>
  <desc id="desc">Logo with vertical accent bar, the name Mitch's Auto Services and an icon of a car and spanner.</desc>
  <defs>
    <linearGradient id="bg" x1="0%" y1="0%" x2="0%" y2="100%">
      <stop offset="0%" stop-color="#111" />
      <stop offset="100%" stop-color="#1f1f1f" />
    </linearGradient>
    <linearGradient id="accent" x1="0%" y1="0%" x2="100%" y2="0%">
      <stop offset="0%" stop-color="#f47a1f" />
      <stop offset="100%" stop-color="#d9650e" />
    </linearGradient>
  </defs>
  <rect width="720" height="340" fill="url(#bg)" rx="28" ry="28" />
  <rect x="70" y="48" width="12" height="244" fill="url(#accent)" rx="6" />
  <g transform="translate(120,86)" fill="#ffffff">
    <text font-family="'Segoe UI', 'Helvetica Neue', Arial, sans-serif" font-size="64" font-weight="700" letter-spacing="1">
      <tspan x="0" y="0">Mitch's Auto</tspan>
      <tspan x="0" y="74">Services</tspan>
    </text>
    <text font-family="'Segoe UI', 'Helvetica Neue', Arial, sans-serif" font-size="28" font-weight="500" fill="#d7d7ff" letter-spacing="0.6">
      <tspan x="2" y="128">Your Car, Our Care, Right Where You Are</tspan>
    </text>
  </g>
  <g transform="translate(512,86)">
    <rect width="148" height="148" rx="24" fill="#161616" stroke="#f47a1f" stroke-width="6" />
    <g transform="translate(18,20)" fill="#f8f8ff">
      <path d="M87 20c14.36 0 26 11.64 26 26v10.2h3.8c6.34 0 11.5 5.16 11.5 11.5V99H20V67.7c0-6.34 5.16-11.5 11.5-11.5H35V46c0-14.36 11.64-26 26-26h26z" fill="#f47a1f"/>
      <path d="M110 70.6c5.26 0 9.54 4.28 9.54 9.54 0 5.26-4.28 9.54-9.54 9.54-5.26 0-9.54-4.28-9.54-9.54 0-5.26 4.28-9.54 9.54-9.54zm-68 0c5.26 0 9.54 4.28 9.54 9.54 0 5.26-4.28 9.54-9.54 9.54-5.26 0-9.54-4.28-9.54-9.54 0-5.26 4.28-9.54 9.54-9.54z" fill="#141414"/>
      <path d="M72 8l14 14h-9v19H65V22h-9z" fill="#f8f8ff"/>
      <path d="M103 21l24 24-16 16-24-24z" fill="#f8f8ff"/>
      <path d="M119 45l-8 8-12-12 8-8a8 8 0 0111.32 0 8 8 0 010 11.32z" fill="#141414"/>
    </g>
  </g>
</svg>
